<svg xmlns="http://www.w3.org/2000/svg" viewBox="0 0 520 128" role="img" aria-labelledby="title desc">
  <title id="title">アキバLive</title>
  <desc id="desc">秋葉原の街とライブ感を表す、アキバLiveの横長ロゴ</desc>
  <rect width="520" height="128" rx="26" fill="#fffdf8"/>
  <g transform="translate(32 26)">
    <rect x="0" y="22" width="66" height="56" rx="10" fill="#24312f"/>
    <path d="M12 22V9h13v13M41 22V0h13v22" stroke="#24312f" stroke-width="8" stroke-linecap="round" stroke-linejoin="round"/>
    <rect x="13" y="34" width="10" height="10" rx="2" fill="#f4d9c9"/>
    <rect x="31" y="34" width="10" height="10" rx="2" fill="#f4d9c9"/>
    <rect x="49" y="34" width="10" height="10" rx="2" fill="#f4d9c9"/>
    <rect x="13" y="53" width="10" height="10" rx="2" fill="#f4d9c9"/>
    <rect x="31" y="53" width="10" height="10" rx="2" fill="#b94a3a"/>
    <rect x="49" y="53" width="10" height="10" rx="2" fill="#f4d9c9"/>
    <path d="M17 83h34" stroke="#b94a3a" stroke-width="7" stroke-linecap="round"/>
    <path d="M76 30c10 8 15 19 15 33s-5 25-15 33" stroke="#b94a3a" stroke-width="6" stroke-linecap="round" fill="none"/>
    <path d="M88 18c14 11 22 27 22 45s-8 34-22 45" stroke="#3f5851" stroke-width="5" stroke-linecap="round" fill="none"/>
  </g>
  <text x="168" y="74" fill="#24312f" font-family="Hiragino Sans, Yu Gothic, Meiryo, sans-serif" font-size="46" font-weight="800" letter-spacing="0">アキバ</text>
  <text x="322" y="74" fill="#b94a3a" font-family="Lato, Arial, sans-serif" font-size="44" font-weight="900" letter-spacing="0">Live</text>
  <text x="171" y="101" fill="#5f6f69" font-family="Lato, Arial, sans-serif" font-size="13" font-weight="700" letter-spacing="2">AKIHABARA EVENT JOURNAL</text>
  <path d="M168 88h285" stroke="#d8cab8" stroke-width="3" stroke-linecap="round"/>
  <circle cx="459" cy="88" r="5" fill="#b94a3a"/>
</svg>
